HIERARCHY
ROOT Hips
{
  OFFSET 0 0 0
  CHANNELS 6 Xposition Yposition Zposition Zrotation Yrotation Xrotation
  JOINT LeftThigh
  {
    OFFSET 8.409438 0 -5.917753
    CHANNELS 3 Zrotation Yrotation Xrotation
    JOINT LeftLeg
    {
      OFFSET 0 0 -42.358652
      CHANNELS 3 Zrotation Yrotation Xrotation
      JOINT LeftFoot
      {
        OFFSET 0 0 -39.357303
        CHANNELS 3 Zrotation Yrotation Xrotation
      }
    }
  }
  JOINT RightThigh
  {
    OFFSET -8.409438 0 -5.917753
    CHANNELS 3 Zrotation Yrotation Xrotation
    JOINT RightLeg
    {
      OFFSET 0 0 -42.358652
      CHANNELS 3 Zrotation Yrotation Xrotation
      JOINT RightFoot
      {
        OFFSET 0 0 -39.357303
        CHANNELS 3 Zrotation Yrotation Xrotation
      }
    }
  }
  JOINT SpineLow
  {
    OFFSET 0 0 4.719101
    CHANNELS 3 Zrotation Yrotation Xrotation
    JOINT SpineMid
    {
      OFFSET 0 0 12.899191
      CHANNELS 3 Zrotation Yrotation Xrotation
      JOINT Chest
      {
        OFFSET 0 0 12.899191
        CHANNELS 3 Zrotation Yrotation Xrotation
        JOINT LeftShoulder
        {
          OFFSET 7.550562 1.41573 9.438202
          CHANNELS 3 Zrotation Yrotation Xrotation
          JOINT LeftArm
          {
            OFFSET 9.155056 0 4.247191
            CHANNELS 3 Zrotation Yrotation Xrotation
            JOINT LeftForearm
            {
              OFFSET 0 0 25.771955
              CHANNELS 3 Zrotation Yrotation Xrotation
              JOINT LeftHand
              {
                OFFSET 0 0 25.197169
                CHANNELS 3 Zrotation Yrotation Xrotation
              }
            }
          }
        }
        JOINT RightShoulder
        {
          OFFSET -7.550562 1.41573 9.438202
          CHANNELS 3 Zrotation Yrotation Xrotation
          JOINT RightArm
          {
            OFFSET -9.155056 0 4.247191
            CHANNELS 3 Zrotation Yrotation Xrotation
            JOINT RightForearm
            {
              OFFSET 0 0 -25.771955
              CHANNELS 3 Zrotation Yrotation Xrotation
              JOINT RightHand
              {
                OFFSET 0 0 -25.197169
                CHANNELS 3 Zrotation Yrotation Xrotation
              }
            }
          }
        }
        JOINT Neck
        {
          OFFSET 0 0 15.101124
          CHANNELS 3 Zrotation Yrotation Xrotation
          JOINT Head
          {
            OFFSET 0 0 11.325843
            CHANNELS 3 Zrotation Yrotation Xrotation
            End Site
            {
              OFFSET 0 0 14.157303
            }
          }
        }
      }
    }
  }
}
MOTION
Frames: 9
Frame Time: 0.01
0.0  101.685394  0.0  -2.734245  -5.899902  -102.63905  28.327594  -23.894742  5.374665  -3.310193  4.649404  23.157585  6.583102  3.260304  4.87191  -10.290731  12.453617  1.215887  4.439112  0.891757  14.123788  9.302807  2.048301  -1.08642  -2.335043  -1.555122  1.52864  -6.485747  -4.096572  4.329254  -6.485747  -4.096572  4.329254  -5.625573  -4.601486  4.185202  -4.374699  51.057515  36.608049  -5.843575  -47.07426  63.150944  100.725766  19.631462  -37.312664  10.32869  -12.204679  25.38382  72.72704  18.300027  37.642098  -31.44698  -9.440335  -109.920957  64.897089  27.653944  29.075692  8.249052  1.144342  2.096926  6.182744  0.886766  1.55753  
0.0  101.685394  0.0  -2.670302  -4.981998  -102.098412  29.276237  -23.853438  4.454247  -4.366953  4.950412  23.063958  6.199342  3.187261  4.827692  -10.685954  12.525089  0.904294  4.147831  0.961086  13.93741  9.079921  1.966892  -1.134782  -2.597854  -1.596556  1.561189  -7.209672  -4.188348  4.438755  -7.209673  -4.188348  4.438755  -4.904951  -5.727473  3.438458  -3.800526  49.339535  34.85149  -11.176083  -40.020868  66.079206  111.630798  16.614351  -34.709327  9.266038  -10.682137  25.974327  69.755265  16.368968  38.059544  -33.06267  -10.212657  -109.39844  64.21375  27.656283  26.950073  8.23528  1.178618  1.23681  6.173887  0.900828  0.911885  
0.0  101.685394  0.0  -2.546898  -4.332834  -101.850952  29.988675  -23.811162  3.920539  -5.09355  5.159578  23.040247  5.926695  3.114943  4.82885  -10.978439  12.600113  0.77226  4.036484  1.10151  13.86843  8.905441  1.947567  -1.166348  -3.025188  -1.710222  1.647243  -8.393052  -4.457667  4.715075  -8.393053  -4.457667  4.715075  -2.869712  -6.366112  3.823647  -2.664539  48.541061  32.385965  -11.658341  -40.439401  65.522062  117.455016  14.238707  -33.736666  9.799174  -8.853437  26.40392  67.537911  14.035912  38.33436  -34.033393  -11.15183  -109.200788  63.299689  27.991747  25.184452  9.369421  1.95351  0.60556  7.024457  1.474829  0.424281  
0.0  101.685394  0.0  -2.481836  -3.853169  -101.698557  30.297635  -23.739456  3.630869  -5.458523  5.257905  22.999117  5.744749  3.092259  4.870679  -11.250117  12.55318  0.683367  3.821967  1.286642  13.825683  8.940196  2.015352  -1.130259  -3.523018  -1.813649  1.728018  -9.769145  -4.690624  4.983798  -9.769146  -4.690624  4.983798  0.661443  -6.904867  4.128389  -2.009744  46.659917  30.459835  -7.783835  -43.724507  61.661558  111.729971  14.284427  -34.355664  11.174081  -7.04768  26.772066  66.204226  11.212538  37.772017  -33.336558  -12.06719  -110.476335  62.77787  28.289681  25.150087  11.071308  2.790082  0.267116  8.300621  2.098216  0.149766  
0.0  101.685394  0.0  -2.21166  -3.684093  -101.296931  30.587037  -23.27393  3.321066  -5.531266  5.177457  22.964992  5.678329  3.11246  4.910678  -11.656235  12.71268  0.133607  4.023878  1.415572  13.865601  8.929711  2.07245  -1.096425  -3.808808  -1.917236  1.754166  -10.562281  -4.946118  5.091901  -10.562281  -4.946118  5.091901  3.75816  -6.888519  3.458059  -2.282683  44.734923  29.498527  -6.704524  -43.742256  59.232085  106.790265  13.611951  -34.774382  11.800658  -4.970127  26.909663  65.61778  8.133461  36.211394  -32.527738  -12.862535  -111.585816  63.022714  28.875917  24.926839  12.270444  3.637718  0.136571  9.198923  2.732335  0.029266  
0.0  101.685394  0.0  -1.57635  -4.16891  -100.55635  31.258475  -22.2412  3.002809  -5.264271  4.913757  22.958225  5.607027  3.139991  4.89028  -11.448376  13.041408  -0.829604  4.237415  1.497839  13.936205  8.843244  2.153319  -1.089756  -3.690793  -1.899303  1.674848  -10.232119  -4.919092  4.863948  -10.232118  -4.919091  4.863948  4.841503  -6.963715  3.027814  -4.204413  43.935985  27.926177  -8.318715  -41.371352  59.501619  108.19427  12.783197  -33.620589  10.750159  -3.740215  26.90739  65.566004  5.134735  34.273316  -32.853685  -12.601699  -111.480122  64.179262  29.345441  23.901881  12.397917  3.9716  0.182408  9.293523  2.983853  0.056076  
0.0  101.685394  0.0  -1.055832  -5.900563  -100.803239  32.680914  -22.026859  3.515955  -5.078597  4.697459  22.753889  5.738004  3.151884  4.949733  -9.834762  13.260979  -0.788185  4.426397  1.566847  14.037546  8.921678  2.28681  -1.071886  -3.246204  -1.80168  1.662873  -9.006401  -4.688512  4.785205  -9.006401  -4.688511  4.785205  4.40484  -7.277812  3.363245  -6.813784  44.288838  26.010215  -9.317865  -39.880004  59.895078  110.731745  11.956762  -32.278438  8.868588  -3.616085  27.194649  65.412815  2.775904  32.646682  -33.262703  -10.654808  -111.587456  66.004342  29.106909  23.843243  11.91605  3.822968  0.59553  8.929999  2.880134  0.371995  
0.0  101.685394  0.0  -0.754236  -7.597563  -101.446206  33.750014  -22.129643  4.386675  -4.782319  4.441053  22.485025  5.904157  3.135276  4.999531  -7.939046  13.30706  -0.306455  4.504749  1.614602  14.192106  8.994542  2.449866  -1.037704  -2.84106  -1.696377  1.673465  -7.889939  -4.430262  4.772964  -7.889939  -4.430262  4.772963  3.95205  -7.580168  4.127581  -9.510157  44.539934  24.271088  -8.828174  -39.956362  59.257681  110.41638  11.619719  -31.514219  7.256894  -3.93219  27.468617  64.800461  1.442652  31.485019  -33.704758  -7.602327  -111.780682  66.416779  29.454362  24.188464  11.535633  3.50942  1.203981  8.642138  2.655918  0.836729  
0.0  101.685394  0.0  -1.019971  -7.581628  -102.495532  32.796413  -22.741086  5.572631  -4.525258  4.291939  22.15446  6.290599  3.103072  5.124502  -7.595615  13.19965  0.648545  4.502091  1.6319  14.3716  9.000305  2.546165  -0.992164  -2.828628  -1.679467  1.76927  -7.860639  -4.373571  5.031817  -7.860638  -4.373571  5.031816  4.02172  -7.393187  4.913591  -11.710382  44.692362  22.779968  -9.088268  -40.132953  59.202359  109.912046  11.376682  -30.918052  6.373167  -4.033303  27.855526  64.104126  1.560013  30.590548  -34.220925  -4.903955  -111.629599  65.05885  29.997722  23.754475  11.567286  3.404604  1.719612  8.663406  2.587115  1.22533  
